<svg xmlns="http://www.w3.org/2000/svg" xmlns:xlink="http://www.w3.org/1999/xlink" version="1.1" width="341px" height="131px" viewBox="-0.5 -0.5 341 131"><defs/><g><ellipse cx="200" cy="60" rx="40" ry="40" fill="rgb(255, 255, 255)" stroke="rgb(0, 0, 0)" pointer-events="all"/><ellipse cx="200" cy="60" rx="40" ry="40" fill="rgb(255, 255, 255)" stroke="rgb(0, 0, 0)" pointer-events="all"/><path d="M 90 40 L 190 40 L 210 80 L 190 120 L 90 120 L 110 80 Z" fill="rgb(255, 255, 255)" stroke="rgb(0, 0, 0)" stroke-miterlimit="10" pointer-events="all"/><path d="M 210 130 L 230 20 L 320 20 L 340 130 Z" fill="rgb(255, 255, 255)" stroke="rgb(0, 0, 0)" stroke-miterlimit="10" pointer-events="all"/><path d="M 30 20 C 6 20 0 40 19.2 44 C 0 52.8 21.6 72 37.2 64 C 48 80 84 80 96 64 C 120 64 120 48 105 40 C 120 24 96 8 75 16 C 60 4 36 4 30 20 Z" fill="rgb(255, 255, 255)" stroke="rgb(0, 0, 0)" stroke-miterlimit="10" pointer-events="all"/></g></svg>